<?xml version="1.0" standalone="no"?>
<!DOCTYPE svg PUBLIC "-//W3C//DTD SVG 20010904//EN"
 "http://www.w3.org/TR/2001/REC-SVG-20010904/DTD/svg10.dtd">
<svg version="1.0" xmlns="http://www.w3.org/2000/svg"
 width="500.000000pt" height="500.000000pt" viewBox="0 0 500.000000 500.000000"
 preserveAspectRatio="xMidYMid meet">
<metadata>
Created by potrace 1.14, written by Peter Selinger 2001-2017
</metadata>
<g transform="translate(0.000000,500.000000) scale(0.100000,-0.100000)"
fill="#000000" stroke="none">
<path d="M2165 4609 c-363 -57 -725 -221 -1004 -453 -100 -84 -272 -262 -343
-357 -222 -296 -366 -662 -408 -1034 -5 -49 -10 -120 -10 -157 l0 -68 224 0
225 0 5 53 c3 28 8 84 11 122 21 240 124 518 276 745 74 110 252 298 359 379
170 129 346 217 550 276 109 31 316 65 401 65 l39 0 0 225 0 225 -102 -1 c-57
-1 -157 -10 -223 -20z"/>
<path d="M2416 3703 c-3 -4 -6 -125 -6 -271 l0 -264 128 7 c152 8 629 -18 735
-41 l27 -6 0 251 c0 138 -1 251 -3 251 -2 0 -50 9 -108 19 -171 32 -755 72
-773 54z"/>
<path d="M2155 3684 c-318 -49 -481 -180 -552 -444 -26 -93 -25 -493 0 -593
33 -133 101 -234 200 -298 120 -78 225 -103 604 -148 139 -17 261 -35 273 -41
48 -26 50 -41 50 -470 l0 -400 36 0 c50 0 169 19 234 37 142 40 267 139 329
261 145 288 112 866 -61 1041 -102 103 -192 129 -662 185 -252 31 -293 38
-310 56 -20 20 -21 32 -24 425 -2 311 -5 405 -15 404 -7 -1 -52 -7 -102 -15z"/>
<path d="M4145 2448 c-19 -212 -49 -351 -109 -507 -146 -378 -435 -698 -791
-876 -203 -101 -482 -175 -661 -175 l-74 0 0 -230 0 -230 55 0 c161 0 430 48
610 110 811 276 1375 1015 1422 1863 l6 117 -225 0 -226 0 -7 -72z"/>
<path d="M1640 1602 c0 -230 1 -251 18 -256 64 -20 453 -53 733 -63 l199 -6 0
269 0 269 -200 -3 c-174 -3 -456 11 -687 35 l-63 6 0 -251z"/>
</g>
</svg>
